<svg xmlns="http://www.w3.org/2000/svg" version="1.1" xmlns:xlink="http://www.w3.org/1999/xlink" width="200" height="200"><svg xmlns="http://www.w3.org/2000/svg" version="1.1" xmlns:xlink="http://www.w3.org/1999/xlink" viewBox="0 0 200 200"><rect width="200" height="200" fill="url('#gradient')"></rect><defs><linearGradient id="SvgjsLinearGradient1001" gradientTransform="rotate(45 0.5 0.5)"><stop offset="0%" stop-color="#ceaa96"></stop><stop offset="100%" stop-color="#8fa983"></stop></linearGradient></defs><g><g fill="#445272" transform="matrix(2.8999370673379485,0,0,2.8999370673379485,8.053507539406738,121.46187732353235)" stroke="#c8512e" stroke-width="0.2"><path d="M9.17-4.81L12.58-4.81Q12.51-3.33 11.78-2.19Q11.04-1.05 9.72-0.43Q8.40 0.20 6.70 0.20L6.70 0.20Q3.90 0.20 2.29-1.63Q0.67-3.46 0.67-6.79L0.67-6.79L0.67-7.49Q0.67-9.58 1.40-11.15Q2.13-12.71 3.50-13.57Q4.86-14.42 6.66-14.42L6.66-14.42Q9.25-14.42 10.82-13.06Q12.39-11.70 12.61-9.31L12.61-9.31L9.19-9.31Q9.15-10.61 8.54-11.17Q7.92-11.74 6.66-11.74L6.66-11.74Q5.38-11.74 4.79-10.78Q4.19-9.82 4.16-7.72L4.16-7.72L4.16-6.72Q4.16-4.44 4.73-3.47Q5.30-2.49 6.70-2.49L6.70-2.49Q7.88-2.49 8.51-3.05Q9.13-3.60 9.17-4.81L9.17-4.81ZM17.52-15L17.52 0L14.22 0L14.22-15L17.52-15ZM25.94 0L25.84-1.14Q24.79 0.20 23.02 0.20L23.02 0.20Q21.28 0.20 20.39-0.82Q19.49-1.83 19.49-3.72L19.49-3.72L19.49-10.57L22.78-10.57L22.78-3.70Q22.78-2.34 24.10-2.34L24.10-2.34Q25.23-2.34 25.71-3.15L25.71-3.15L25.71-10.57L29.02-10.57L29.02 0L25.94 0ZM35.94 0.20L35.94 0.20Q33.51 0.20 32.00-1.25Q30.50-2.71 30.50-5.03L30.50-5.03L30.50-5.30Q30.50-6.92 31.10-8.16Q31.70-9.40 32.85-10.08Q34.00-10.76 35.59-10.76L35.59-10.76Q37.81-10.76 39.10-9.38Q40.39-8.00 40.39-5.53L40.39-5.53L40.39-4.25L33.85-4.25Q34.02-3.36 34.62-2.85Q35.21-2.34 36.16-2.34L36.16-2.34Q37.72-2.34 38.60-3.44L38.60-3.44L40.11-1.66Q39.49-0.81 38.36-0.31Q37.24 0.20 35.94 0.20ZM35.57-8.22L35.57-8.22Q34.12-8.22 33.85-6.31L33.85-6.31L37.17-6.31L37.17-6.56Q37.19-7.35 36.77-7.79Q36.35-8.22 35.57-8.22ZM41.30-5.36L41.30-5.36Q41.30-7.87 42.38-9.32Q43.47-10.76 45.41-10.76L45.41-10.76Q46.83-10.76 47.79-9.65L47.79-9.65L47.79-15L51.09-15L51.09 0L48.13 0L47.97-1.13Q46.95 0.20 45.39 0.20L45.39 0.20Q43.51 0.20 42.40-1.25Q41.30-2.70 41.30-5.36ZM44.60-5.76L44.59-5.16Q44.59-2.34 46.23-2.34L46.23-2.34Q47.32-2.34 47.79-3.26L47.79-3.26L47.79-7.29Q47.34-8.22 46.25-8.22L46.25-8.22Q44.73-8.22 44.60-5.76L44.60-5.76ZM52.56-4.82L52.55-5.38Q52.55-6.96 53.16-8.20Q53.78-9.43 54.93-10.10Q56.08-10.76 57.64-10.76L57.64-10.76Q60.01-10.76 61.38-9.29Q62.74-7.82 62.74-5.29L62.74-5.29L62.74-5.18Q62.74-2.71 61.37-1.25Q60 0.20 57.66 0.20L57.66 0.20Q55.40 0.20 54.03-1.16Q52.67-2.51 52.56-4.82L52.56-4.82ZM55.85-5.77L55.84-5.18Q55.84-3.71 56.30-3.03Q56.76-2.34 57.66-2.34L57.66-2.34Q59.41-2.34 59.45-5.05L59.45-5.05L59.45-5.38Q59.45-8.22 57.64-8.22L57.64-8.22Q55.99-8.22 55.85-5.77L55.85-5.77Z"></path></g></g></svg><style>@media (prefers-color-scheme: light) { :root { filter: none; } }
@media (prefers-color-scheme: dark) { :root { filter: none; } }
</style></svg>